<svg xmlns="http://www.w3.org/2000/svg" width="18" height="18" viewBox="0 0 18 18">
  <metadata><?xpacket begin="﻿" id="W5M0MpCehiHzreSzNTczkc9d"?>
<x:xmpmeta xmlns:x="adobe:ns:meta/" x:xmptk="Adobe XMP Core 5.6-c138 79.159824, 2016/09/14-01:09:01        ">
   <rdf:RDF xmlns:rdf="http://www.w3.org/1999/02/22-rdf-syntax-ns#">
      <rdf:Description rdf:about=""/>
   </rdf:RDF>
</x:xmpmeta>
                                                                                                    
                                                                                                    
                                                                                                    
                                                                                                    
                                                                                                    
                                                                                                    
                                                                                                    
                                                                                                    
                                                                                                    
                                                                                                    
                                                                                                    
                                                                                                    
                                                                                                    
                                                                                                    
                                                                                                    
                                                                                                    
                                                                                                    
                                                                                                    
                                                                                                    
                                                                                                    
                           
<?xpacket end="w"?></metadata>
<defs>
    <style>
      .cls-1 {
        fill: none;
        stroke: #636363;
        stroke-width: 1px;
        fill-rule: evenodd;
      }
    </style>
  </defs>
  <path id="Phone" class="cls-1" d="M1071.49,639a3.913,3.913,0,0,1-1.3-.223,17.921,17.921,0,0,1-11-11.29,3.9,3.9,0,0,1,1.35-4.3l0.83-.639a2.664,2.664,0,0,1,3.98.9l1.41,2.752a1.8,1.8,0,0,1,.21.848,1.881,1.881,0,0,1-.49,1.256l-0.3.321a1.058,1.058,0,0,0-.16,1.175,5.056,5.056,0,0,0,2.18,2.171,1.045,1.045,0,0,0,1.17-.157l0.33-.295a1.885,1.885,0,0,1,2.1-.285l2.75,1.415a2.647,2.647,0,0,1,.68,4.227l-0.96.969A3.915,3.915,0,0,1,1071.49,639Zm-8.51-15.407a1.066,1.066,0,0,0-.64.216l-0.84.639a2.293,2.293,0,0,0-.79,2.548,16.3,16.3,0,0,0,10.01,10.279,2.355,2.355,0,0,0,2.42-.554l0.96-.97a1.05,1.05,0,0,0,.31-0.745,1.075,1.075,0,0,0-.58-0.946l-2.76-1.414a0.3,0.3,0,0,0-.3.041l-0.32.295a2.674,2.674,0,0,1-2.98.4,6.545,6.545,0,0,1-2.86-2.858,2.644,2.644,0,0,1,.4-2.981l0.29-.321a0.229,0.229,0,0,0,.07-0.179,0.247,0.247,0,0,0-.03-0.119l-1.41-2.752A1.072,1.072,0,0,0,1062.98,623.593Z" transform="translate(-1058.5 -621.5)"/>
</svg>
